<svg width="252" height="65" viewBox="0 0 252 65" fill="none" xmlns="http://www.w3.org/2000/svg">
<path d="M34.152 2.776C35.736 2.776 36.96 2.68 37.824 2.488C38.688 2.248 39.36 2.032 39.84 1.84C40.32 1.6 40.752 1.48 41.136 1.48C41.376 1.48 41.544 1.504 41.64 1.552C41.736 1.552 41.832 1.6 41.928 1.696L41.136 14.584C41.04 14.68 40.752 14.8 40.272 14.944C39.84 15.04 39.48 15.088 39.192 15.088C38.808 15.088 38.616 14.968 38.616 14.728C38.712 13.192 38.544 11.752 38.112 10.408C37.68 9.064 37.056 7.984 36.24 7.168C35.424 6.304 34.464 5.872 33.36 5.872H27.24L20.832 38.776C20.784 38.968 20.736 39.16 20.688 39.352C20.688 39.544 20.664 39.736 20.616 39.928C20.376 41.128 20.184 42.184 20.04 43.096C19.896 44.008 19.896 44.776 20.04 45.4C20.088 45.688 20.376 45.928 20.904 46.12C21.432 46.312 22.008 46.456 22.632 46.552C23.256 46.6 23.712 46.648 24 46.696C24.096 46.936 24.072 47.368 23.928 47.992C23.832 48.616 23.688 49.048 23.496 49.288C22.296 49.144 20.808 49.024 19.032 48.928C17.256 48.832 15.672 48.784 14.28 48.784C12.936 48.784 11.352 48.832 9.528 48.928C7.752 49.024 6.216 49.144 4.92 49.288C4.824 49.048 4.824 48.616 4.92 47.992C5.064 47.368 5.232 46.936 5.424 46.696C5.712 46.648 6.168 46.6 6.792 46.552C7.464 46.456 8.112 46.312 8.736 46.12C9.36 45.928 9.744 45.688 9.888 45.4C10.272 44.68 10.584 43.768 10.824 42.664C11.112 41.56 11.4 40.264 11.688 38.776L18.096 5.872H11.976C10.872 5.872 9.744 6.304 8.592 7.168C7.44 7.984 6.384 9.064 5.424 10.408C4.512 11.752 3.792 13.192 3.264 14.728C3.168 14.968 2.928 15.088 2.544 15.088C2.256 15.088 1.92 15.04 1.536 14.944C1.152 14.8 0.912 14.68 0.816 14.584L4.992 1.696C5.136 1.6 5.256 1.552 5.352 1.552C5.448 1.504 5.616 1.48 5.856 1.48C6.288 1.48 6.696 1.6 7.08 1.84C7.512 2.032 8.112 2.248 8.88 2.488C9.696 2.68 10.872 2.776 12.408 2.776H34.152ZM53.2787 17.464C55.2467 17.464 56.9987 17.776 58.5347 18.4C60.1187 19.024 61.3667 20.104 62.2787 21.64C63.1907 23.176 63.6467 25.336 63.6467 28.12C63.6467 30.664 63.0707 33.208 61.9187 35.752C60.8147 38.248 59.3507 40.528 57.5267 42.592C55.7027 44.656 53.7107 46.312 51.5507 47.56C49.3907 48.808 47.2547 49.432 45.1427 49.432C42.2147 49.432 39.8147 48.544 37.9427 46.768C36.0707 44.944 35.1347 42.352 35.1347 38.992C35.1347 36.448 35.6627 33.904 36.7187 31.36C37.8227 28.816 39.2627 26.512 41.0387 24.448C42.8147 22.336 44.7587 20.656 46.8707 19.408C49.0307 18.112 51.1667 17.464 53.2787 17.464ZM52.4867 20.272C51.1907 20.272 50.0147 20.944 48.9587 22.288C47.9027 23.584 46.9907 25.264 46.2227 27.328C45.5027 29.392 44.9267 31.576 44.4947 33.88C44.1107 36.184 43.9187 38.296 43.9187 40.216C43.9187 40.744 43.9427 41.536 43.9907 42.592C44.0867 43.6 44.3027 44.536 44.6387 45.4C44.9747 46.216 45.5267 46.624 46.2947 46.624C47.5907 46.624 48.7667 45.976 49.8227 44.68C50.8787 43.336 51.7667 41.632 52.4867 39.568C53.2547 37.504 53.8307 35.368 54.2147 33.16C54.6467 30.904 54.8627 28.864 54.8627 27.04C54.8627 26.272 54.8147 25.36 54.7187 24.304C54.6707 23.248 54.4787 22.312 54.1427 21.496C53.8547 20.68 53.3027 20.272 52.4867 20.272ZM89.3749 9.616C89.4709 8.944 89.5909 8.248 89.7349 7.528C89.9269 6.808 90.0229 6.256 90.0229 5.872C90.0229 5.44 89.7589 5.128 89.2309 4.936C88.7029 4.744 88.1029 4.648 87.4309 4.648C86.8069 4.6 86.2789 4.576 85.8469 4.576C85.7989 4.576 85.7509 4.576 85.7029 4.576C85.6069 4.432 85.5829 4.096 85.6309 3.568C85.7269 2.992 85.8469 2.632 85.9909 2.488C86.9509 2.392 88.0789 2.248 89.3749 2.056C90.6709 1.816 91.9429 1.576 93.1909 1.336C94.4869 1.096 95.6149 0.855996 96.5749 0.615996C97.5829 0.375997 98.2789 0.183998 98.6629 0.0399995C98.8549 0.135998 98.9749 0.327997 99.0229 0.615996C99.0709 0.903998 99.0949 1.168 99.0949 1.408C99.0949 1.6 99.0469 2.008 98.9509 2.632C98.8549 3.256 98.7349 3.952 98.5909 4.72C98.4469 5.44 98.3029 6.088 98.1589 6.664L91.5349 39.712C91.4869 39.856 91.4149 40.24 91.3189 40.864C91.2709 41.44 91.2469 41.824 91.2469 42.016C91.2469 42.352 91.3189 42.688 91.4629 43.024C91.6069 43.36 91.8469 43.528 92.1829 43.528C92.7109 43.528 93.3589 43.192 94.1269 42.52C94.8949 41.848 95.5909 41.176 96.2149 40.504C96.8389 39.784 97.1749 39.352 97.2229 39.208C97.4629 39.208 97.6789 39.472 97.8709 40C98.0629 40.528 98.1589 40.912 98.1589 41.152C97.8709 41.728 97.2949 42.472 96.4309 43.384C95.6149 44.296 94.6549 45.232 93.5509 46.192C92.4469 47.152 91.3189 47.968 90.1669 48.64C89.0149 49.264 87.9589 49.576 86.9989 49.576C85.4629 49.576 84.2869 49 83.4709 47.848C83.2789 47.512 83.0869 47.128 82.8949 46.696C82.7029 46.264 82.6069 45.664 82.6069 44.896C82.6069 44.608 82.6549 44.176 82.7509 43.6C82.8949 42.976 82.9909 42.52 83.0389 42.232C82.5589 43.096 81.7669 44.104 80.6629 45.256C79.6069 46.408 78.3829 47.416 76.9909 48.28C75.6469 49.096 74.2549 49.504 72.8149 49.504C70.8469 49.504 69.3349 48.664 68.2789 46.984C67.2709 45.304 66.7669 43.288 66.7669 40.936C66.7669 38.008 67.3669 35.224 68.5669 32.584C69.8149 29.896 71.4229 27.472 73.3909 25.312C75.4069 23.152 77.5669 21.4 79.8709 20.056C82.2229 18.664 84.4789 17.8 86.6389 17.464C86.8309 17.416 87.0949 17.416 87.4309 17.464C87.6229 17.464 87.7669 17.464 87.8629 17.464L89.3749 9.616ZM86.2069 24.16C86.2069 23.104 86.0629 22.36 85.7749 21.928C85.4869 21.496 85.0309 21.28 84.4069 21.28C83.2069 21.28 82.0789 21.784 81.0229 22.792C79.9669 23.752 79.0309 25.072 78.2149 26.752C77.3989 28.384 76.7509 30.208 76.2709 32.224C75.8389 34.24 75.6229 36.28 75.6229 38.344C75.6229 40.024 75.8389 41.272 76.2709 42.088C76.7509 42.904 77.3749 43.312 78.1429 43.312C78.7189 43.312 79.3909 42.856 80.1589 41.944C80.9269 41.032 81.6709 39.856 82.3909 38.416C83.1109 36.976 83.7589 35.44 84.3349 33.808C84.9109 32.176 85.2949 30.664 85.4869 29.272C85.4869 29.272 85.5349 28.912 85.6309 28.192C85.7749 27.472 85.8949 26.704 85.9909 25.888C86.1349 25.024 86.2069 24.448 86.2069 24.16ZM119.443 17.464C121.411 17.464 123.163 17.776 124.699 18.4C126.283 19.024 127.531 20.104 128.443 21.64C129.355 23.176 129.811 25.336 129.811 28.12C129.811 30.664 129.235 33.208 128.083 35.752C126.979 38.248 125.515 40.528 123.691 42.592C121.867 44.656 119.875 46.312 117.715 47.56C115.555 48.808 113.419 49.432 111.307 49.432C108.379 49.432 105.979 48.544 104.107 46.768C102.235 44.944 101.299 42.352 101.299 38.992C101.299 36.448 101.827 33.904 102.883 31.36C103.987 28.816 105.427 26.512 107.203 24.448C108.979 22.336 110.923 20.656 113.035 19.408C115.195 18.112 117.331 17.464 119.443 17.464ZM118.651 20.272C117.355 20.272 116.179 20.944 115.123 22.288C114.067 23.584 113.155 25.264 112.387 27.328C111.667 29.392 111.091 31.576 110.659 33.88C110.275 36.184 110.083 38.296 110.083 40.216C110.083 40.744 110.107 41.536 110.155 42.592C110.251 43.6 110.467 44.536 110.803 45.4C111.139 46.216 111.691 46.624 112.459 46.624C113.755 46.624 114.931 45.976 115.987 44.68C117.043 43.336 117.931 41.632 118.651 39.568C119.419 37.504 119.995 35.368 120.379 33.16C120.811 30.904 121.027 28.864 121.027 27.04C121.027 26.272 120.979 25.36 120.883 24.304C120.835 23.248 120.643 22.312 120.307 21.496C120.019 20.68 119.467 20.272 118.651 20.272Z" fill="#3C2E58"/>
<path d="M152.515 41.08C152.659 40.312 152.803 39.592 152.947 38.92C153.139 38.248 153.283 37.72 153.379 37.336C152.707 38.776 151.843 40.216 150.787 41.656C149.731 43.096 148.579 44.416 147.331 45.616C146.131 46.816 144.979 47.776 143.875 48.496C142.771 49.216 141.835 49.576 141.067 49.576C139.291 49.576 138.115 49.12 137.539 48.208C136.963 47.248 136.675 45.688 136.675 43.528C136.675 42.76 136.747 41.8 136.891 40.648C137.083 39.496 137.275 38.368 137.467 37.264C137.707 36.112 137.875 35.248 137.971 34.672C138.259 33.232 138.523 32.008 138.763 31C139.003 29.944 139.219 28.696 139.411 27.256C139.459 27.112 139.507 26.752 139.555 26.176C139.651 25.552 139.699 25.144 139.699 24.952C139.699 24.616 139.627 24.304 139.483 24.016C139.339 23.68 139.075 23.512 138.691 23.512C138.211 23.512 137.587 23.848 136.819 24.52C136.051 25.144 135.355 25.816 134.731 26.536C134.155 27.208 133.819 27.616 133.723 27.76C133.483 27.76 133.243 27.496 133.003 26.968C132.811 26.44 132.715 26.08 132.715 25.888C133.003 25.312 133.555 24.568 134.371 23.656C135.187 22.744 136.123 21.808 137.179 20.848C138.235 19.888 139.315 19.096 140.419 18.472C141.571 17.8 142.627 17.464 143.587 17.464C144.979 17.464 146.107 17.896 146.971 18.76C147.883 19.576 148.339 20.8 148.339 22.432C148.339 22.912 148.243 23.632 148.051 24.592C147.907 25.552 147.787 26.224 147.691 26.608C147.643 26.8 147.523 27.352 147.331 28.264C147.187 29.128 146.995 30.088 146.755 31.144C146.563 32.2 146.395 33.112 146.251 33.88C146.107 34.648 146.035 35.032 146.035 35.032C145.987 35.32 145.891 35.848 145.747 36.616C145.651 37.384 145.531 38.152 145.387 38.92C145.291 39.64 145.243 40.12 145.243 40.36C145.243 40.696 145.315 41.032 145.459 41.368C145.651 41.656 145.939 41.8 146.323 41.8C146.851 41.8 147.547 41.224 148.411 40.072C149.323 38.92 150.259 37.432 151.219 35.608C152.227 33.736 153.163 31.696 154.027 29.488C154.891 27.232 155.539 25.024 155.971 22.864L156.979 17.968C157.363 17.872 158.011 17.776 158.923 17.68C159.835 17.584 160.483 17.536 160.867 17.536C161.251 17.536 161.923 17.584 162.883 17.68C163.891 17.776 164.611 17.872 165.043 17.968L160.939 39.712C160.891 39.904 160.843 40.288 160.795 40.864C160.747 41.44 160.723 41.824 160.723 42.016C160.723 42.352 160.795 42.688 160.939 43.024C161.083 43.36 161.323 43.528 161.659 43.528C162.187 43.528 162.835 43.192 163.603 42.52C164.371 41.848 165.067 41.176 165.691 40.504C166.315 39.784 166.651 39.352 166.699 39.208C166.939 39.208 167.155 39.472 167.347 40C167.539 40.528 167.635 40.912 167.635 41.152C167.347 41.728 166.771 42.472 165.907 43.384C165.091 44.296 164.131 45.232 163.027 46.192C161.923 47.152 160.795 47.968 159.643 48.64C158.491 49.264 157.435 49.576 156.475 49.576C155.323 49.576 154.291 49.192 153.379 48.424C152.467 47.608 152.011 46.312 152.011 44.536C152.011 44.296 152.059 43.864 152.155 43.24C152.251 42.568 152.371 41.848 152.515 41.08ZM178.401 9.616C178.497 8.944 178.617 8.248 178.761 7.528C178.953 6.808 179.049 6.256 179.049 5.872C179.049 5.44 178.785 5.128 178.257 4.936C177.729 4.744 177.129 4.648 176.457 4.648C175.833 4.6 175.305 4.576 174.873 4.576C174.825 4.576 174.777 4.576 174.729 4.576C174.633 4.432 174.609 4.096 174.657 3.568C174.753 2.992 174.873 2.632 175.017 2.488C175.977 2.392 177.105 2.248 178.401 2.056C179.697 1.816 180.969 1.576 182.217 1.336C183.513 1.096 184.641 0.855996 185.601 0.615996C186.609 0.375997 187.305 0.183998 187.689 0.0399995C187.881 0.135998 188.001 0.327997 188.049 0.615996C188.097 0.903998 188.121 1.168 188.121 1.408C188.121 1.6 188.073 2.008 187.977 2.632C187.881 3.256 187.761 3.952 187.617 4.72C187.473 5.44 187.329 6.088 187.185 6.664L180.705 39.712C180.657 39.904 180.585 40.288 180.489 40.864C180.441 41.44 180.417 41.824 180.417 42.016C180.417 42.352 180.489 42.688 180.633 43.024C180.825 43.36 181.089 43.528 181.425 43.528C181.953 43.528 182.577 43.192 183.297 42.52C184.065 41.848 184.761 41.176 185.385 40.504C186.009 39.784 186.345 39.352 186.393 39.208C186.633 39.208 186.849 39.472 187.041 40C187.281 40.528 187.401 40.912 187.401 41.152C187.113 41.728 186.537 42.472 185.673 43.384C184.857 44.296 183.897 45.232 182.793 46.192C181.689 47.152 180.561 47.968 179.409 48.64C178.257 49.264 177.201 49.576 176.241 49.576C175.089 49.576 174.057 49.192 173.145 48.424C172.233 47.608 171.777 46.312 171.777 44.536C171.777 44.008 171.873 43.264 172.065 42.304C172.257 41.296 172.377 40.648 172.425 40.36L178.401 9.616ZM215.58 17.464C217.836 17.464 219.54 18.28 220.692 19.912C221.892 21.496 222.492 23.512 222.492 25.96C222.492 28.888 221.844 31.768 220.548 34.6C219.252 37.384 217.572 39.88 215.508 42.088C213.444 44.296 211.236 46.072 208.884 47.416C206.532 48.712 204.276 49.36 202.116 49.36C201.924 49.36 201.636 49.336 201.252 49.288C200.868 49.24 200.508 49.144 200.172 49L198.372 57.856C198.228 58.48 198.156 59.128 198.156 59.8C198.156 59.992 198.228 60.28 198.372 60.664C198.564 61.096 198.828 61.36 199.164 61.456C199.692 61.6 200.292 61.672 200.964 61.672C201.636 61.672 202.092 61.672 202.332 61.672C202.428 61.672 202.476 61.672 202.476 61.672C202.62 61.72 202.644 62.056 202.548 62.68C202.5 63.352 202.38 63.736 202.188 63.832C201.708 63.832 201.276 63.808 200.892 63.76C200.508 63.76 200.124 63.76 199.74 63.76C198.54 63.76 197.1 63.784 195.42 63.832C193.788 63.88 192.132 63.928 190.452 63.976C188.772 64.072 187.236 64.216 185.844 64.408C185.652 64.36 185.58 64 185.628 63.328C185.676 62.656 185.796 62.272 185.988 62.176C187.236 62.176 188.172 61.792 188.796 61.024C189.228 60.448 189.612 59.44 189.948 58L195.204 32.656L191.82 36.04C191.676 35.848 191.556 35.56 191.46 35.176C191.364 34.744 191.316 34.408 191.316 34.168C191.316 33.784 191.436 33.424 191.676 33.088C191.964 32.704 192.204 32.416 192.396 32.224L195.996 28.84L198.084 17.752C198.372 17.656 198.804 17.608 199.38 17.608C199.956 17.56 200.532 17.536 201.108 17.536C201.732 17.488 202.164 17.464 202.404 17.464C202.788 17.464 203.46 17.512 204.42 17.608C205.428 17.656 206.1 17.776 206.436 17.968C206.388 18.4 206.292 18.952 206.148 19.624C206.004 20.296 205.86 20.944 205.716 21.568C205.62 22.144 205.548 22.552 205.5 22.792C206.172 22.072 207.06 21.304 208.164 20.488C209.268 19.624 210.468 18.904 211.764 18.328C213.108 17.752 214.38 17.464 215.58 17.464ZM210.684 23.368C209.628 23.368 208.596 23.68 207.588 24.304C206.58 24.88 205.692 25.552 204.924 26.32C204.828 26.8 204.636 27.688 204.348 28.984C204.108 30.28 203.844 31.672 203.556 33.16C203.268 34.6 203.004 35.848 202.764 36.904C202.572 37.96 202.476 38.488 202.476 38.488C201.948 41.176 201.852 43.144 202.188 44.392C202.524 45.64 203.148 46.264 204.06 46.264C205.308 46.264 206.484 45.616 207.588 44.32C208.74 42.976 209.748 41.32 210.612 39.352C211.476 37.336 212.148 35.32 212.628 33.304C213.156 31.24 213.42 29.464 213.42 27.976C213.42 26.824 213.228 25.768 212.844 24.808C212.508 23.848 211.788 23.368 210.684 23.368ZM243.255 17.464C244.455 17.464 245.655 17.656 246.855 18.04C248.055 18.424 249.039 19.096 249.807 20.056C250.623 20.968 251.031 22.24 251.031 23.872C251.031 25.312 250.599 26.656 249.735 27.904C248.919 29.152 247.815 30.256 246.423 31.216C245.079 32.176 243.639 32.992 242.103 33.664C240.615 34.336 239.175 34.864 237.783 35.248C236.391 35.584 235.263 35.752 234.399 35.752C234.351 35.848 234.303 36.136 234.255 36.616C234.255 37.048 234.255 37.36 234.255 37.552C234.255 38.416 234.351 39.328 234.543 40.288C234.783 41.2 235.215 41.992 235.839 42.664C236.463 43.288 237.351 43.6 238.503 43.6C239.319 43.6 240.111 43.384 240.879 42.952C241.695 42.472 242.439 41.944 243.111 41.368C243.831 40.792 244.407 40.264 244.839 39.784C245.319 39.304 245.583 39.04 245.631 38.992C245.967 38.992 246.231 39.304 246.423 39.928C246.615 40.504 246.711 40.912 246.711 41.152C246.471 41.536 245.871 42.184 244.911 43.096C243.951 43.96 242.799 44.896 241.455 45.904C240.159 46.864 238.791 47.704 237.351 48.424C235.959 49.096 234.711 49.432 233.607 49.432C231.111 49.432 229.143 48.544 227.703 46.768C226.263 44.944 225.543 42.4 225.543 39.136C225.543 36.544 226.071 33.976 227.127 31.432C228.231 28.84 229.647 26.488 231.375 24.376C233.103 22.264 234.999 20.584 237.063 19.336C239.175 18.088 241.239 17.464 243.255 17.464ZM234.615 33.088C235.287 33.088 236.079 32.8 236.991 32.224C237.903 31.648 238.791 30.88 239.655 29.92C240.519 28.912 241.239 27.808 241.815 26.608C242.391 25.36 242.679 24.088 242.679 22.792C242.679 22.12 242.559 21.496 242.319 20.92C242.127 20.344 241.647 20.056 240.879 20.056C240.015 20.056 239.223 20.56 238.503 21.568C237.783 22.528 237.135 23.752 236.559 25.24C236.031 26.68 235.599 28.12 235.263 29.56C234.927 31 234.711 32.176 234.615 33.088Z" fill="#BCEED9"/>
</svg>
